<?xml version="1.0" standalone="no"?><!DOCTYPE svg PUBLIC "-//W3C//DTD SVG 1.1//EN" "http://www.w3.org/Graphics/SVG/1.1/DTD/svg11.dtd"><svg class="icon" width="32px" height="32.00px" viewBox="0 0 1024 1024" version="1.1" xmlns="http://www.w3.org/2000/svg"><path fill="#8c8c8c" d="M961 171.6C961 113.3 913.7 66 855.4 66H663.6C605.3 66 558 113.3 558 171.6v191.8c0 58.3 47.3 105.6 105.6 105.6h191.8c58.3 0 105.6-47.3 105.6-105.6V171.6z m-64 197.9c0 19.4-32 35.5-51.5 35.5H658c-19.4 0-35-16-35-35.5V165.9c0-19.4 15.6-34.9 35-34.9h203.6c19.4 0 35.3 15.5 35.3 34.9v203.6zM961 655.6c0-58.3-47.3-105.6-105.6-105.6H663.6C605.3 550 558 597.3 558 655.6v191.8c0 58.3 47.3 105.6 105.6 105.6h191.8c58.3 0 105.6-47.3 105.6-105.6V655.6z m-64 197.2c0 19.4-15.8 35.2-35.2 35.2H658.2c-19.4 0-35.2-15.8-35.2-35.2V649.2c0-19.4 15.8-35.2 35.2-35.2h203.6c19.4 0 35.2 15.8 35.2 35.2v203.6zM462 655.6c0-58.3-47.3-105.6-105.6-105.6H164.6C106.3 550 59 597.3 59 655.6v191.8C59 905.7 106.3 953 164.6 953h191.8c58.3 0 105.6-47.3 105.6-105.6V655.6z m-65 197.2c0 19.4-15.8 35.2-35.2 35.2H158.2c-19.4 0-35.2-15.8-35.2-35.2V649.2c0-19.4 15.8-35.2 35.2-35.2h203.6c19.4 0 35.2 15.8 35.2 35.2v203.6zM462 171.6C462 113.3 414.7 66 356.4 66H164.6C106.3 66 59 113.3 59 171.6v191.8C59 421.7 106.3 469 164.6 469h191.8c58.3 0 105.6-47.3 105.6-105.6V171.6z m-65 198.2c0 19.4-15.8 35.2-35.2 35.2H158.2c-19.4 0-35.2-15.8-35.2-35.2V166.2c0-19.4 15.8-35.2 35.2-35.2h203.6c19.4 0 35.2 15.8 35.2 35.2v203.6z" /></svg>