<?xml version="1.0" standalone="no"?><!DOCTYPE svg PUBLIC "-//W3C//DTD SVG 1.1//EN" "http://www.w3.org/Graphics/SVG/1.1/DTD/svg11.dtd"><svg class="icon" width="32px" height="32.00px" viewBox="0 0 1024 1024" version="1.1" xmlns="http://www.w3.org/2000/svg"><path fill="#488aff" d="M353.194 155.375q23.886 0 40.881 16.536t16.995 40.421v229.665q0 23.886-16.995 40.881t-40.881 16.995h-229.665q-23.886 0-40.421-16.995t-16.536-40.881v-229.665q0-23.886 16.536-40.421t40.421-16.536h229.665zM353.194 614.705q23.886 0 40.881 16.536t16.995 40.421v230.584q0 23.886-16.995 40.421t-40.881 16.536h-229.665q-23.886 0-40.421-16.536t-16.536-40.421v-230.584q0-23.886 16.536-40.421t40.421-16.536h229.665zM813.443 614.705q23.886 0 40.421 16.536t16.536 40.421v230.584q0 23.886-16.536 40.421t-40.421 16.536h-229.665q-23.886 0-40.881-16.536t-16.995-40.421v-230.584q0-23.886 16.995-40.421t40.881-16.536h229.665zM941.136 256.427q18.373 18.373 18.373 43.177t-18.373 42.259l-170.871 170.871q-18.373 18.373-42.718 18.373t-42.718-18.373l-170.871-170.871q-17.454-17.454-17.454-42.259t17.454-43.177l170.871-170.871q18.373-17.454 42.718-17.454t42.718 17.454z" /></svg>